<svg xmlns="http://www.w3.org/2000/svg" xmlns:xlink="http://www.w3.org/1999/xlink" width="500" zoomAndPan="magnify" viewBox="0 0 375 374.999991" height="500" preserveAspectRatio="xMidYMid meet" version="1.0"><defs><clipPath id="a5b2e805a5"><path d="M 27.351562 9.144531 L 347.601562 9.144531 L 347.601562 305 L 27.351562 305 Z M 27.351562 9.144531 " clip-rule="nonzero"/></clipPath></defs><rect x="-37.5" width="450" fill="#ffffff" y="-37.499999" height="449.999989" fill-opacity="1"/><rect x="-37.5" width="450" fill="#ffffff" y="-37.499999" height="449.999989" fill-opacity="1"/><g clip-path="url(#a5b2e805a5)"><path fill="#374151" d="M 237.746094 273.976562 C 300.011719 262.765625 347.636719 207.984375 347.636719 142.617188 C 347.636719 69.21875 287.585938 9.167969 214.1875 9.167969 L 27.351562 9.167969 L 80.734375 62.546875 L 214.1875 62.546875 C 258.226562 62.546875 294.253906 98.578125 294.253906 142.621094 C 294.253906 186.660156 258.226562 222.691406 214.1875 222.691406 L 187.496094 222.691406 L 187.496094 304.1875 L 240.878906 273.371094 C 239.839844 273.585938 238.796875 273.785156 237.746094 273.976562 Z M 237.746094 273.976562 " fill-opacity="1" fill-rule="evenodd"/></g><path fill="#6875f5" d="M 134.117188 276.070312 C 134.117188 240.484375 134.117188 204.898438 134.117188 169.308594 L 214.183594 169.308594 C 228.867188 169.308594 240.875 157.304688 240.875 142.621094 C 240.875 127.9375 228.867188 115.929688 214.183594 115.929688 L 80.734375 115.929688 C 80.734375 169.308594 80.734375 222.691406 80.734375 276.070312 L 80.734375 365.828125 L 134.113281 335.011719 L 134.113281 276.070312 Z M 134.117188 276.070312 " fill-opacity="1" fill-rule="evenodd"/></svg>